<?xml version="1.0" encoding="utf-8"?>
<!-- Generator: Adobe Illustrator 23.0.5, SVG Export Plug-In . SVG Version: 6.00 Build 0)  -->
<svg version="1.1" id="Layer_1" xmlns="http://www.w3.org/2000/svg" xmlns:xlink="http://www.w3.org/1999/xlink" x="0px" y="0px"
	 viewBox="0 0 24 24" style="enable-background:new 0 0 24 24;" xml:space="preserve">
<style type="text/css">
	.st0{fill:#3D5E61;}
	.st1{fill:#FFFFFF;}
</style>
<g id="Layer_4">
</g>
<g id="Layer_3">
</g>
<g id="Layer_5">
</g>
<g id="Layer_6">
	<g id="Layer_12">
		<path class="st0" d="M10.6,16.4c0,0.2,0,0.4,0.1,0.6H3.5v-1.2h7.2C10.6,16,10.6,16.2,10.6,16.4z"/>
		<path class="st0" d="M21,15.9V17h-7.7c0.1-0.2,0.1-0.4,0.1-0.6s0-0.4-0.1-0.6H21V15.9z"/>
		<path class="st0" d="M15.3,11.4c0,0.2,0.1,0.4,0.1,0.6H3.5v-1.2h11.9C15.3,11,15.3,11.2,15.3,11.4z"/>
		<path class="st0" d="M21,10.8V12h-3c0.1-0.2,0.1-0.4,0.1-0.6c0-0.2-0.1-0.4-0.1-0.6C18,10.8,21,10.8,21,10.8z"/>
		<path class="st0" d="M6.4,6.4c0,0.2,0,0.4,0.1,0.6h-3V5.8h3C6.4,6,6.4,6.2,6.4,6.4z"/>
		<path class="st0" d="M21,5.8V7H9c0.1-0.2,0.1-0.4,0.1-0.6S9.1,6,9,5.8H21z"/>
		<g>
			<path class="st1" d="M9.7,5.8C9.4,5,8.7,4.4,7.8,4.4S6.1,5,5.9,5.8C5.8,6,5.8,6.2,5.8,6.4s0,0.4,0.1,0.6c0.3,0.8,1,1.4,1.9,1.4
				S9.5,7.8,9.7,7c0.1-0.2,0.1-0.4,0.1-0.6S9.8,6,9.7,5.8z M7.8,7.8c-0.6,0-1-0.3-1.3-0.8C6.4,6.9,6.4,6.7,6.4,6.4
				c0-0.2,0-0.4,0.1-0.6C6.7,5.4,7.2,5,7.8,5s1,0.3,1.3,0.8c0,0.2,0.1,0.4,0.1,0.6c0,0.2,0,0.4-0.1,0.6C8.8,7.5,8.3,7.8,7.8,7.8z"/>
			<path class="st0" d="M10.3,5.8c-0.3-1.1-1.3-2-2.5-2s-2.3,0.9-2.5,2c0,0.2-0.1,0.4-0.1,0.6s0,0.4,0.1,0.6c0.3,1.2,1.3,2,2.5,2
				s2.2-0.8,2.5-2c0-0.2,0.1-0.4,0.1-0.6S10.4,6,10.3,5.8z M9.2,6.4c0,0.2,0,0.4-0.1,0.6C8.8,7.5,8.3,7.8,7.8,7.8S6.7,7.5,6.5,7
				C6.4,6.9,6.4,6.7,6.4,6.4c0-0.2,0-0.4,0.1-0.6C6.7,5.4,7.2,5,7.8,5s1,0.3,1.3,0.8C9.1,6,9.2,6.2,9.2,6.4z"/>
		</g>
		<g>
			<path class="st1" d="M18.6,10.8c-0.3-0.8-1-1.4-1.9-1.4S15,10,14.8,10.8c-0.1,0.2-0.1,0.4-0.1,0.6s0,0.4,0.1,0.6
				c0.3,0.8,1,1.4,1.9,1.4s1.7-0.6,1.9-1.4c0.1-0.2,0.1-0.4,0.1-0.6S18.7,11,18.6,10.8z M16.7,12.9c-0.6,0-1-0.3-1.3-0.8
				c-0.1-0.2-0.1-0.4-0.1-0.6c0-0.2,0.1-0.4,0.1-0.6c0.2-0.5,0.7-0.8,1.3-0.8s1,0.3,1.3,0.8c0.1,0.2,0.1,0.4,0.1,0.6
				c0,0.2-0.1,0.4-0.1,0.6C17.7,12.5,17.2,12.9,16.7,12.9z"/>
			<path class="st0" d="M19.2,10.8c-0.3-1.1-1.3-2-2.5-2s-2.3,0.9-2.5,2c0,0.2-0.1,0.4-0.1,0.6s0,0.4,0.1,0.6c0.3,1.2,1.3,2,2.5,2
				s2.3-0.8,2.5-2c0.1-0.2,0.1-0.4,0.1-0.6S19.3,11,19.2,10.8z M18.1,11.4c0,0.2-0.1,0.4-0.1,0.6c-0.2,0.5-0.7,0.8-1.3,0.8
				s-1-0.3-1.3-0.8c-0.1-0.2-0.1-0.4-0.1-0.6c0-0.2,0.1-0.4,0.1-0.6c0.2-0.5,0.7-0.8,1.3-0.8s1,0.3,1.3,0.8
				C18,11,18.1,11.2,18.1,11.4z"/>
		</g>
		<g>
			<path class="st1" d="M13.9,15.9c-0.3-0.8-1-1.4-1.9-1.4s-1.7,0.6-1.9,1.4C10,16,10,16.2,10,16.4s0,0.4,0.1,0.6
				c0.3,0.8,1,1.4,1.9,1.4s1.7-0.6,1.9-1.4c0.1-0.2,0.1-0.4,0.1-0.6S14,16,13.9,15.9z M12,17.9c-0.6,0-1-0.3-1.3-0.8
				c-0.1-0.2-0.1-0.4-0.1-0.6s0-0.4,0.1-0.6c0.2-0.5,0.7-0.8,1.3-0.8s1,0.3,1.3,0.8c0.1,0.2,0.1,0.4,0.1,0.6s0,0.4-0.1,0.6
				C13,17.5,12.5,17.9,12,17.9z"/>
			<path class="st0" d="M14.5,15.9c-0.3-1.1-1.3-2-2.5-2s-2.3,0.9-2.5,2c-0.1,0.2-0.1,0.4-0.1,0.6s0,0.4,0.1,0.6
				c0.3,1.2,1.3,2,2.5,2s2.3-0.8,2.5-2c0-0.2,0.1-0.4,0.1-0.6S14.6,16,14.5,15.9z M13.4,16.4c0,0.2,0,0.4-0.1,0.6
				c-0.2,0.5-0.7,0.8-1.3,0.8s-1-0.3-1.3-0.8c-0.1-0.2-0.1-0.4-0.1-0.6s0-0.4,0.1-0.6c0.2-0.5,0.7-0.8,1.3-0.8s1,0.3,1.3,0.8
				C13.3,16,13.4,16.2,13.4,16.4z"/>
		</g>
	</g>
</g>
<g id="Layer_7">
</g>
</svg>
