<?xml version="1.0" encoding="utf-8"?>
<!-- Generator: Adobe Illustrator 23.0.5, SVG Export Plug-In . SVG Version: 6.00 Build 0)  -->
<svg version="1.1" id="Layer_1" xmlns="http://www.w3.org/2000/svg" xmlns:xlink="http://www.w3.org/1999/xlink" x="0px" y="0px"
	 viewBox="0 0 121 125" style="enable-background:new 0 0 121 125;" xml:space="preserve">
<style type="text/css">
	.st0{fill:#FFD8AD;}
	.st1{fill:#FFFFFF;}
</style>
<g id="Layer_3">
</g>
<g id="Layer_4">
</g>
<g id="Layer_7">
	<g>
		<g>
			<path class="st0" d="M71.8,72.4c-0.7,0-67-65.9-67-65.9l37.5,27.2l49.2,37l20.3,2C111.8,72.7,72.3,72.5,71.8,72.4z"/>
			<path class="st1" d="M43.5,31.6l3.3,2.9L92.9,69l16.4,1.7c3.2,0.3,6-2.1,6.2-5.3c0.2-2.6-1.5-4.9-3.9-5.8l-12.2-4.4l-5.6-10.5
				l-14,0.8L92.4,42l-1.7-3l-19.9,1l17.8-4.9l-1.2-2.3c-0.8-1.5-2.3-2.4-4-2.5l-13.7-0.7c-1.7-0.1-3.3-1-4.2-2.6
				c-0.5-0.9-0.7-2-0.6-3.1l0.4-4.1c0.2-2-0.4-3.9-1.6-5.5l-0.7-1c-1-1.3-3-1.4-4.1-0.1L43.5,31.6z"/>
		</g>
		<g>
			<path class="st1" d="M22.2,111v5.3h-16V82.8h6.1V111H22.2z"/>
			<path class="st1" d="M50.7,110.8v5.4H32.3V82.8h17.5V88H38.3v7.8h9.1v5.1h-9.1v9.9H50.7z"/>
			<path class="st1" d="M77.3,111.4h-12l-1.8,4.8h-6.7l14.2-34h0.5l14.2,34h-6.5L77.3,111.4z M75.5,106.7L72,97.6l-0.8-2.7l-0.8,2.7
				l-3.4,9.1H75.5z"/>
			<path class="st1" d="M111.8,85.5c2.2,1.8,3.3,4.8,3.3,9c0,2.3-0.4,4.4-1.3,6.3s-2.2,3.5-4,4.7s-4.1,1.8-6.8,1.8h-3v9h-6.2V82.8h9
				C106.6,82.8,109.6,83.7,111.8,85.5z M107.3,100.3c1.1-1.3,1.6-3.1,1.6-5.5c0-1.7-0.2-3-0.6-4.1c-0.4-1-1.1-1.8-2.1-2.3
				s-2.2-0.8-3.8-0.8H100v14.6h2.5C104.7,102.2,106.3,101.6,107.3,100.3z"/>
		</g>
	</g>
</g>
<g id="Layer_5">
</g>
<g id="Layer_6">
</g>
</svg>
